<svg width="1040" height="681" viewBox="0 0 1040 681" fill="none" xmlns="http://www.w3.org/2000/svg">
<path d="M519.869 680.704C806.985 680.704 1039.74 667.115 1039.74 650.352C1039.74 633.589 806.985 620 519.869 620C232.753 620 0 633.589 0 650.352C0 667.115 232.753 680.704 519.869 680.704Z" fill="#F5F5F5"/>
<path d="M656.189 3.52505L655.002 147.256H864.966L869.715 0.571106L656.189 3.52505Z" fill="#407BFF"/>
<g opacity="0.8">
<path opacity="0.8" d="M710.955 59.5637C709.111 59.1285 707.356 58.3738 705.771 57.3337L708.378 51.5416C709.729 52.4015 711.19 53.0738 712.722 53.5399C714.299 54.0257 715.938 54.2793 717.587 54.2929C720.483 54.2929 722.134 53.5399 722.134 52.005C722.129 51.6112 722.001 51.229 721.767 50.912C721.533 50.5951 721.206 50.3595 720.831 50.2384C719.478 49.7166 718.082 49.3097 716.661 49.0221C714.875 48.6527 713.114 48.1691 711.39 47.574C709.999 47.0502 708.756 46.1953 707.77 45.0834C706.711 43.779 706.174 42.1276 706.264 40.4497C706.243 38.8085 706.729 37.2008 707.654 35.845C708.699 34.3809 710.148 33.2536 711.824 32.6015C713.985 31.7325 716.302 31.3185 718.63 31.3851C720.454 31.3792 722.273 31.593 724.046 32.0222C725.7 32.3802 727.292 32.9856 728.766 33.8178L726.334 39.6099C723.971 38.2432 721.301 37.496 718.572 37.4379C717.387 37.3465 716.201 37.5979 715.155 38.1619C714.83 38.3356 714.558 38.5945 714.37 38.9108C714.181 39.2272 714.082 39.589 714.083 39.9574C714.087 40.3372 714.213 40.7057 714.442 41.0082C714.672 41.3108 714.993 41.5313 715.357 41.6371C716.69 42.1491 718.066 42.5369 719.47 42.7955C721.258 43.1572 723.019 43.641 724.741 44.2436C726.137 44.7735 727.387 45.627 728.39 46.7342C729.462 48.0214 730.01 49.6656 729.925 51.3389C729.944 52.9664 729.447 54.5581 728.506 55.8857C727.452 57.3417 726.006 58.467 724.335 59.1293C722.182 59.9903 719.877 60.4042 717.558 60.3456C715.333 60.3639 713.115 60.1011 710.955 59.5637Z" fill="white"/>
<path opacity="0.8" d="M752.252 54.4087H740.436L738.235 59.8533H730.184L742.521 31.9353H750.224L762.59 59.8533H754.366L752.252 54.4087ZM749.935 48.6166L746.344 39.6967L742.753 48.6166H749.935Z" fill="white"/>
<path opacity="0.8" d="M791.667 31.9353L779.706 59.8533H771.916L759.984 31.9353H768.528L776.115 50.1225L783.848 31.9353H791.667Z" fill="white"/>
<path opacity="0.8" d="M815.734 53.7426V59.8533H793.318V31.9353H815.212V38.017H801.138V42.7376H813.533V48.5297H801.138V53.6268L815.734 53.7426Z" fill="white"/>
<path opacity="0.8" d="M729.083 88.669L720.018 116.587H711.562L706.204 99.5871L700.615 116.587H692.303L683.268 88.669H691.405L697.024 106.509L702.816 88.669H710.085L715.703 106.653L721.495 88.669H729.083Z" fill="white"/>
<path opacity="0.8" d="M749.646 111.171H737.859L735.658 116.587H727.607L739.916 88.669H747.706L760.072 116.587H751.847L749.646 111.171ZM747.359 105.379L743.767 96.4304L740.176 105.379H747.359Z" fill="white"/>
<path opacity="0.8" d="M766.846 94.9244H758.158V88.669H783.18V94.9244H774.637V116.587H766.731L766.846 94.9244Z" fill="white"/>
<path opacity="0.8" d="M808.667 110.418V116.529H786.252V88.611H808.146V94.7217H794.071V99.4133H806.466V105.205H794.071V110.418H808.667Z" fill="white"/>
<path opacity="0.8" d="M825.264 109.173H820.949V116.587H813.043V88.669H825.815C828.07 88.6113 830.311 89.0358 832.389 89.9143C834.151 90.6569 835.653 91.9069 836.704 93.5054C837.67 95.1362 838.179 96.9967 838.179 98.892C838.179 100.787 837.67 102.648 836.704 104.279C835.713 105.816 834.308 107.041 832.649 107.812L838.673 116.5H830.217L825.264 109.173ZM829 95.938C827.957 95.1442 826.658 94.7627 825.351 94.8665H820.949V103.033H825.351C826.653 103.132 827.947 102.762 829 101.991C829.801 101.187 830.251 100.099 830.251 98.9644C830.251 97.8298 829.801 96.7415 829 95.938Z" fill="white"/>
</g>
<g opacity="0.9">
<path opacity="0.9" d="M688.682 50.7307C688.682 53.2961 687.662 55.7564 685.848 57.5704C684.034 59.3844 681.574 60.4035 679.009 60.4035C676.443 60.4035 673.983 59.3844 672.169 57.5704C670.355 55.7564 669.336 53.2961 669.336 50.7307C669.336 45.402 679.009 25.7957 679.009 25.7957C679.009 25.7957 688.682 45.402 688.682 50.7307Z" fill="white"/>
<path opacity="0.9" d="M852.542 50.7307C852.614 52.0436 852.418 53.3573 851.965 54.5916C851.512 55.826 850.812 56.955 849.908 57.9098C849.004 58.8646 847.915 59.6251 846.707 60.1448C845.5 60.6645 844.199 60.9326 842.884 60.9326C841.569 60.9326 840.268 60.6645 839.06 60.1448C837.852 59.6251 836.763 58.8646 835.859 57.9098C834.955 56.955 834.256 55.826 833.803 54.5916C833.35 53.3573 833.154 52.0436 833.225 50.7307C833.225 45.402 842.869 25.7957 842.869 25.7957C842.869 25.7957 852.542 45.402 852.542 50.7307Z" fill="white"/>
</g>
<path d="M679.388 157.247C678.751 157.247 673.596 139.466 673.596 139.466L686.946 145.547L689.64 154.236C689.64 154.236 687.642 158.753 679.388 157.247Z" fill="#DD8C6A"/>
<path d="M673.65 139.379L676.546 133.239C676.801 132.689 677.178 132.206 677.65 131.826C678.121 131.445 678.674 131.179 679.265 131.048C679.856 130.916 680.47 130.922 681.058 131.066C681.647 131.21 682.194 131.488 682.657 131.878L687.204 135.672C687.761 136.14 688.178 136.753 688.408 137.443C688.638 138.133 688.672 138.873 688.507 139.582L687.117 145.374C687.117 145.374 677.241 146.242 673.65 139.379Z" fill="#DD8C6A"/>
<path d="M679.357 212.91C677.938 210.969 676.461 208.942 675.245 206.886C674.279 205.484 673.454 203.99 672.783 202.426C672.138 200.862 671.634 199.243 671.277 197.589C670.302 192.173 670.253 186.63 671.133 181.198C672.179 172.16 674.561 163.327 678.199 154.988C678.77 153.715 679.819 152.718 681.121 152.213C682.422 151.709 683.87 151.739 685.15 152.295C687.264 153.222 689.667 153.859 689.378 156.176V156.465C688.162 165.003 687.552 173.616 687.553 182.24C687.553 185.879 688.079 189.498 689.117 192.985C689.315 193.539 689.567 194.073 689.87 194.577C689.959 194.743 690.066 194.898 690.189 195.041L690.913 195.939C692.187 197.618 693.49 199.269 694.88 200.891C700.354 207.465 706.464 213.865 712.633 220.092C718.802 226.318 725.26 232.632 731.602 238.539V238.713C732.628 239.643 733.46 240.767 734.051 242.019C734.641 243.272 734.978 244.629 735.043 246.012C735.107 247.395 734.898 248.777 734.427 250.079C733.956 251.381 733.232 252.577 732.297 253.599C728.359 257.914 718.657 263.793 714.371 259.854C714.4 259.854 684.947 220.468 679.357 212.91Z" fill="#407BFF"/>
<path opacity="0.1" d="M714.399 259.855L701.367 242.478C710.982 249.66 718.28 238.453 718.28 238.453L723.754 240.451L726.041 249.602L725.404 258.87C721.263 261.013 716.948 262.2 714.399 259.855Z" fill="black"/>
<path d="M710.346 639.44C708.493 639.44 706.871 639.208 706.379 638.368C706.266 638.14 706.223 637.885 706.254 637.633C706.285 637.381 706.389 637.143 706.553 636.949C706.825 636.556 707.241 636.286 707.711 636.196C710.115 635.559 714.633 638.31 714.893 638.426C714.934 638.475 714.962 638.535 714.974 638.598C714.986 638.661 714.982 638.726 714.962 638.787C714.941 638.848 714.906 638.903 714.858 638.946C714.811 638.989 714.753 639.02 714.69 639.034C713.257 639.298 711.804 639.434 710.346 639.44ZM708.464 636.746H707.827C707.685 636.77 707.549 636.823 707.429 636.903C707.31 636.983 707.208 637.088 707.132 637.21C706.842 637.615 706.9 637.789 707.132 637.934C707.653 638.832 711.186 638.832 713.822 638.484C712.204 637.541 710.41 636.94 708.551 636.718L708.464 636.746Z" fill="#407BFF"/>
<path d="M714.601 639.005C712.979 638.252 710.025 635.298 710.488 633.677C710.488 633.3 710.894 632.837 711.82 632.75C712.142 632.701 712.47 632.726 712.781 632.821C713.091 632.916 713.377 633.08 713.616 633.3C714.757 634.852 715.293 636.768 715.122 638.687C715.12 638.746 715.103 638.803 715.073 638.854C715.042 638.905 714.999 638.947 714.948 638.976C714.899 639.015 714.84 639.037 714.779 639.043C714.717 639.048 714.655 639.035 714.601 639.005ZM711.878 633.416H711.705C711.096 633.416 711.038 633.735 711.009 633.792C710.749 634.748 712.689 637.123 714.311 638.166C714.355 636.62 713.887 635.102 712.979 633.85C712.83 633.703 712.654 633.586 712.46 633.506C712.266 633.427 712.059 633.386 711.849 633.387L711.878 633.416Z" fill="#407BFF"/>
<path d="M732.529 606.425H718.599L716.051 638.687H729.952L732.529 606.425Z" fill="#DD8C6A"/>
<path d="M712.834 638.166C702.698 643.958 699.773 644.218 688.565 646.593C686.132 647.114 687.001 652.907 692.707 652.907C702.177 652.907 703.19 652.472 711.27 652.472C718.163 652.472 726.04 652.791 731.543 652.878H732.035C732.573 652.749 733.048 652.434 733.377 651.989C733.705 651.544 733.866 650.997 733.83 650.445L732.614 638.079C732.586 637.815 732.46 637.571 732.262 637.395C732.064 637.218 731.808 637.121 731.543 637.123H716.309C715.082 637.174 713.887 637.532 712.834 638.166Z" fill="#263238"/>
<path opacity="0.2" d="M732.528 606.454L731.196 623.077H717.266L718.598 606.454H732.528Z" fill="black"/>
<path d="M765.425 338.917C765.425 338.917 762.761 387.31 757.982 434.486C753.609 477.927 735.249 619.833 735.249 619.833H711.646C711.646 619.833 711.298 475.031 711.906 431.011C712.486 388.613 716.453 338.917 716.453 338.917H765.425Z" fill="#263238"/>
<path d="M739.768 611.435L737.914 620.123H709.214C709.214 620.123 708.983 610.334 709.214 610.334L739.768 611.435Z" fill="#407BFF"/>
<path opacity="0.5" d="M760.127 367.732L764.731 375.841C762.907 389.974 760.445 410.333 757.984 434.602C757.289 441.611 756.217 451.197 754.914 462.317C748.282 439.149 751.526 367.732 751.526 367.732H760.127Z" fill="black"/>
<path d="M790.014 338.975C796.009 353.049 800.527 366.921 815.238 428.752C829.719 489.395 864.326 613.346 864.326 613.346L839.768 618.733C839.768 618.733 784.54 474.481 771.247 431.011C759.055 391.277 737.566 338.801 737.566 338.801L790.014 338.975Z" fill="#263238"/>
<path d="M864.59 634.603C864.397 633.154 864.759 631.685 865.604 630.491C865.813 630.336 866.067 630.252 866.328 630.252C866.588 630.252 866.842 630.336 867.052 630.491C867.245 630.604 867.413 630.754 867.548 630.933C867.682 631.112 867.779 631.316 867.833 631.534C868.471 633.85 865.748 638.745 865.604 638.977C865.574 639.034 865.528 639.082 865.471 639.113C865.415 639.144 865.35 639.157 865.285 639.15C865.222 639.136 865.163 639.103 865.117 639.057C865.071 639.011 865.039 638.953 865.024 638.89C864.764 637.475 864.618 636.042 864.59 634.603ZM867.283 632.373C867.312 632.162 867.312 631.948 867.283 631.736C867.269 631.599 867.219 631.467 867.138 631.355C867.056 631.243 866.947 631.155 866.82 631.099C866.415 630.868 866.212 630.925 866.096 631.099C865.198 631.736 865.198 635.241 865.604 637.847C866.504 636.145 867.074 634.288 867.283 632.373Z" fill="#407BFF"/>
<path d="M864.997 638.803V638.658C865.75 636.978 868.733 633.648 870.297 633.879C870.673 633.879 871.137 634.198 871.224 635.096C871.265 635.426 871.238 635.761 871.143 636.08C871.048 636.399 870.888 636.695 870.673 636.949C869.189 638.251 867.315 639.025 865.345 639.15C865.284 639.154 865.223 639.142 865.168 639.117C865.112 639.092 865.064 639.054 865.026 639.005C865.008 638.975 864.996 638.942 864.991 638.907C864.986 638.872 864.988 638.837 864.997 638.803ZM870.587 635.356V635.154C870.587 634.574 870.297 634.516 870.21 634.516C869.254 634.372 866.909 636.66 865.895 638.368C867.479 638.2 868.974 637.553 870.181 636.515C870.452 636.186 870.614 635.781 870.644 635.356H870.587Z" fill="#407BFF"/>
<path d="M858.944 612.159L845.361 613.173L851.617 639.845L865.228 638.89L858.944 612.159Z" fill="#DD8C6A"/>
<path opacity="0.2" d="M858.768 611.406L861.519 623.135L847.936 624.12L845.156 612.333L858.768 611.406Z" fill="black"/>
<path d="M868.499 637.094C872.148 641.438 874.089 643.668 884.746 646.998C887.092 647.751 884.978 653.37 879.302 652.791C869.86 651.951 875.073 651.98 867.051 651.285C860.188 650.648 852.252 650.3 846.779 649.895C846.597 649.922 846.411 649.922 846.229 649.895C845.718 649.729 845.295 649.367 845.05 648.89C844.806 648.412 844.761 647.857 844.925 647.346L848.748 635.241C848.828 634.973 848.999 634.742 849.232 634.589C849.466 634.435 849.745 634.369 850.022 634.401L865.169 635.733C866.413 635.738 867.607 636.226 868.499 637.094Z" fill="#263238"/>
<path d="M867.281 608.915L869.163 617.604L837.857 620.76C837.857 620.76 834.121 612.072 834.237 612.072L867.281 608.915Z" fill="#407BFF"/>
<path d="M725.348 234.659C739.194 233.62 753.085 233.301 766.964 233.703C770.584 233.935 774.204 234.311 777.824 234.775C785.383 235.73 795.201 242.797 793.926 250.298C788.787 282.302 788.972 314.937 794.477 346.881L715.473 346.186C707.682 284.934 710.839 265.27 713.822 250.269C715.473 242.218 717.268 236.02 725.348 234.659Z" fill="#407BFF"/>
<path d="M769.08 233.211C764.417 229.098 761.753 210.042 761.753 210.042L745.042 218.238C745.042 218.238 744.753 229.678 741.538 232.718C740.264 233.935 741.741 233.558 739.945 233.848L745.361 245.432L754.889 245.056L770.846 233.732C769.08 233.211 770.499 234.601 769.08 233.211Z" fill="#DD8C6A"/>
<path opacity="0.1" d="M742.953 223.712C753.466 220.816 760.619 214.155 761.749 209.231C761.749 207.754 761.749 206.799 761.749 206.799L743.301 214.039C743.438 217.267 743.322 220.502 742.953 223.712Z" fill="black"/>
<path d="M739.886 231.473L748.574 245.258L738.148 253.425L734.441 233.471L739.886 231.473Z" fill="#407BFF"/>
<path opacity="0.5" d="M739.886 231.473L748.574 245.258L738.148 253.425L734.441 233.471L739.886 231.473Z" fill="white"/>
<path d="M770.001 230.923L746.572 244.882L756.68 254.931L774.722 234.138L770.001 230.923Z" fill="#407BFF"/>
<path opacity="0.5" d="M770.001 230.923L746.572 244.882L756.68 254.931L774.722 234.138L770.001 230.923Z" fill="white"/>
<path d="M740.38 172.046C740.38 172.046 725.9 173.871 737.484 186.758L747.012 173.349L740.38 172.046Z" fill="#263238"/>
<path d="M779.824 183.775C779.853 183.525 779.853 183.272 779.824 183.022C779.724 183.022 779.628 183.062 779.558 183.133C779.487 183.203 779.447 183.299 779.447 183.399C779.447 183.499 779.487 183.594 779.558 183.665C779.628 183.736 779.724 183.775 779.824 183.775Z" fill="#407BFF"/>
<path d="M770.498 192.116C767.167 205.003 766.009 210.506 758.132 215.921C746.258 224.059 731.169 217.138 730.561 203.526C730.069 191.247 735.6 172.162 749.386 169.527C752.422 168.921 755.563 169.101 758.511 170.049C761.459 170.997 764.116 172.682 766.23 174.944C768.344 177.206 769.846 179.971 770.593 182.976C771.34 185.981 771.307 189.127 770.498 192.116Z" fill="#DD8C6A"/>
<path d="M739.305 204.395C742.11 205.092 745.043 205.092 747.848 204.395C747.848 204.395 747.645 209.956 740.666 208.913L739.363 208.652C739.727 207.254 739.707 205.783 739.305 204.395Z" fill="#263238"/>
<path d="M740.436 204.598V205.988C742.71 206.687 745.141 206.687 747.415 205.988C747.637 205.473 747.774 204.925 747.821 204.366C745.41 205.017 742.882 205.096 740.436 204.598Z" fill="white"/>
<path d="M746.662 207.175C746.065 207.129 745.464 207.129 744.867 207.175C742.492 207.175 740.552 207.957 740.291 208.855H740.668C741.725 209.141 742.841 209.136 743.896 208.84C744.951 208.545 745.907 207.969 746.662 207.175Z" fill="#C13B37"/>
<path d="M749.154 191.508C748.922 192.55 748.198 193.303 747.532 193.187C746.866 193.072 746.431 192.087 746.634 191.015C746.837 189.944 747.561 189.191 748.256 189.336C748.951 189.48 749.299 190.465 749.154 191.508Z" fill="#263238"/>
<path d="M737.165 189.162C736.933 190.233 736.209 190.986 735.514 190.842C734.819 190.697 734.443 189.741 734.616 188.67C734.79 187.598 735.572 186.874 736.267 187.019C736.962 187.164 737.339 188.119 737.165 189.162Z" fill="#263238"/>
<path d="M740.491 191.797C739.064 194.037 737.339 196.073 735.365 197.85C735.837 198.335 736.406 198.714 737.035 198.964C737.664 199.213 738.338 199.327 739.014 199.298L740.491 191.797Z" fill="#C13B37"/>
<path d="M754.454 190.002C754.317 189.996 754.185 189.949 754.077 189.866C753.968 189.783 753.887 189.669 753.846 189.538C753.441 188.588 752.843 187.732 752.09 187.024C751.338 186.316 750.446 185.772 749.473 185.426C749.392 185.4 749.318 185.358 749.254 185.303C749.19 185.248 749.138 185.181 749.101 185.105C749.063 185.03 749.04 184.948 749.035 184.864C749.029 184.779 749.04 184.695 749.067 184.615C749.126 184.464 749.238 184.339 749.382 184.265C749.526 184.19 749.692 184.17 749.849 184.21C751.355 183.659 753.324 185.629 755.062 189.191C755.083 189.271 755.088 189.354 755.076 189.436C755.065 189.518 755.036 189.597 754.993 189.667C754.949 189.738 754.892 189.799 754.824 189.846C754.756 189.894 754.68 189.927 754.599 189.944H754.425L754.454 190.002Z" fill="#263238"/>
<path d="M734.614 182.82C734.5 182.816 734.388 182.783 734.292 182.721C734.195 182.66 734.116 182.574 734.064 182.472C733.996 182.32 733.985 182.149 734.033 181.989C734.081 181.83 734.185 181.693 734.325 181.603C735.202 181.105 736.185 180.824 737.193 180.783C738.2 180.743 739.203 180.945 740.117 181.372C740.258 181.446 740.364 181.572 740.413 181.724C740.462 181.875 740.449 182.04 740.378 182.182C740.298 182.325 740.166 182.432 740.01 182.481C739.853 182.529 739.684 182.516 739.538 182.443C738.803 182.126 738.004 181.984 737.205 182.03C736.405 182.075 735.628 182.306 734.933 182.704C734.836 182.764 734.727 182.804 734.614 182.82Z" fill="#263238"/>
<path d="M732.846 166.833C732.592 167.938 732.604 169.088 732.883 170.186C733.161 171.285 733.698 172.302 734.449 173.152C735.199 174.001 736.142 174.659 737.198 175.072C738.254 175.484 739.393 175.638 740.521 175.521C746.805 174.74 758.621 177.027 763.95 184.21C763.95 184.21 762.589 186.237 765.427 187.83C765.427 187.83 758.998 195.736 762.907 202.773C766.817 209.811 772.812 201.586 774.492 199.066C777.607 194.531 779.393 189.214 779.647 183.717C779.571 183.722 779.497 183.701 779.434 183.66C779.372 183.618 779.324 183.557 779.299 183.486C780.113 183.124 780.813 182.547 781.323 181.818C781.833 181.088 782.135 180.233 782.195 179.344C782.216 178.22 781.936 177.11 781.384 176.13C781.153 175.724 780.487 176.13 780.718 176.448C781.119 177.163 781.375 177.951 781.471 178.765C781.522 179.491 781.374 180.218 781.042 180.866C780.71 181.514 780.208 182.06 779.589 182.443C779.414 181.029 778.942 179.668 778.203 178.45C777.465 177.232 776.476 176.185 775.303 175.377C767.194 169.585 750.947 166.689 745.039 159.883C745.184 159.941 734.468 163.677 732.846 166.833Z" fill="#263238"/>
<path d="M772.207 202.831C770.934 205.007 768.852 206.59 766.415 207.233C763.171 208.044 761.607 205.119 762.563 202.078C763.519 199.037 766.212 195.62 769.456 196.112C770.011 196.21 770.542 196.417 771.018 196.72C771.494 197.024 771.905 197.418 772.228 197.881C772.551 198.344 772.779 198.866 772.9 199.417C773.02 199.969 773.031 200.538 772.931 201.094C772.824 201.72 772.577 202.314 772.207 202.831Z" fill="#DD8C6A"/>
<path opacity="0.1" d="M793.927 250.298C792.826 256.958 792.044 263.561 791.494 270.078C781.387 276.507 771.801 249.805 771.801 249.805L783.385 238.626L787.121 238.337C791.378 241.407 794.709 245.751 793.927 250.298Z" fill="black"/>
<path d="M826.912 157.247C827.52 157.247 832.704 139.466 832.704 139.466L819.324 145.547L816.631 154.236C816.631 154.236 818.658 158.753 826.912 157.247Z" fill="#DD8C6A"/>
<path d="M832.646 139.379L829.75 133.239C829.499 132.69 829.125 132.206 828.656 131.826C828.187 131.446 827.637 131.179 827.047 131.048C826.458 130.916 825.847 130.922 825.26 131.066C824.674 131.21 824.129 131.488 823.668 131.878L819.122 135.672C818.559 136.135 818.139 136.748 817.908 137.439C817.678 138.131 817.647 138.873 817.818 139.582L819.18 145.374C819.18 145.374 829.026 146.242 832.646 139.379Z" fill="#DD8C6A"/>
<path d="M826.938 212.91C828.357 210.969 829.69 208.942 831.051 206.886C832.008 205.484 832.823 203.99 833.483 202.426C834.138 200.863 834.652 199.244 835.018 197.589C835.978 192.172 836.027 186.632 835.163 181.198C834.12 172.156 831.729 163.321 828.068 154.988C827.791 154.356 827.392 153.785 826.895 153.307C826.397 152.829 825.809 152.455 825.166 152.205C824.523 151.954 823.837 151.833 823.147 151.849C822.457 151.865 821.777 152.016 821.146 152.295C819.003 153.222 816.628 153.859 816.918 156.176V156.465C818.134 165.003 818.743 173.616 818.742 182.24C818.743 185.879 818.216 189.498 817.179 192.985C816.969 193.534 816.717 194.067 816.426 194.577C816.336 194.75 816.219 194.907 816.078 195.041L815.383 195.939C814.109 197.618 812.806 199.269 811.415 200.891C805.942 207.465 799.831 213.865 793.634 220.092C787.436 226.318 781.007 232.632 774.665 238.539V238.713C772.604 240.6 771.376 243.227 771.251 246.018C771.126 248.809 772.114 251.536 773.998 253.599C777.908 257.914 787.61 263.793 791.925 259.854C791.896 259.854 821.349 220.468 826.938 212.91Z" fill="#407BFF"/>
</svg>
